<?xml version="1.0" standalone="no"?><!DOCTYPE svg PUBLIC "-//W3C//DTD SVG 1.1//EN" "http://www.w3.org/Graphics/SVG/1.1/DTD/svg11.dtd"><svg t="1724506565824" class="icon" viewBox="0 0 1024 1024" version="1.1" xmlns="http://www.w3.org/2000/svg" p-id="19537" xmlns:xlink="http://www.w3.org/1999/xlink" width="200" height="200"><path d="M878.08 775.36V246.4a79.36 79.36 0 1 0-106.56-101.12L252.16 140.48A79.36 79.36 0 1 0 147.84 246.4v529.28a79.36 79.36 0 1 0 108.16 96l515.52 4.8a79.36 79.36 0 1 0 106.56-100.16zM805.76 162.24a41.92 41.92 0 1 1 28.8 51.52 41.92 41.92 0 0 1-28.8-51.2zM771.84 201.6a79.36 79.36 0 0 0 49.92 47.68V320L704 200.96z m-121.28 0l171.2 174.08v75.52l-236.8-250.24z m-117.76 0l288 305.28v56L461.44 198.72z m-124.8 0l413.76 416v70.08L334.72 197.44zM139.84 162.24a41.92 41.92 0 1 1 28.8 51.52 41.92 41.92 0 0 1-28.8-51.52z m80.32 697.28A41.92 41.92 0 1 1 192 808.96a41.6 41.6 0 0 1 28.16 50.56z m32-45.44a79.04 79.04 0 0 0-47.36-41.6v-64l105.6 106.24z m111.68 0l-160-161.6v-64l214.08 225.92z m107.2 0l-266.56-278.72v-61.12l341.12 342.72z m128 0L204.48 421.12v-64l463.04 460.8z m172.8 1.92h-51.2L204.48 302.72V249.28l9.6-3.84L777.6 808a79.04 79.04 0 0 0-5.44 11.2zM243.52 221.44A79.04 79.04 0 0 0 256 196.8h24.96L821.76 736v35.84a79.36 79.36 0 0 0-17.92 8.64z m642.56 638.08a41.92 41.92 0 1 1-29.12-50.56 41.6 41.6 0 0 1 29.12 50.56z" fill="#86C6FF" p-id="19538"></path></svg>