<?xml version="1.0" standalone="no"?><!DOCTYPE svg PUBLIC "-//W3C//DTD SVG 1.1//EN" "http://www.w3.org/Graphics/SVG/1.1/DTD/svg11.dtd"><svg t="1724506611887" class="icon" viewBox="0 0 1024 1024" version="1.1" xmlns="http://www.w3.org/2000/svg" p-id="21701" xmlns:xlink="http://www.w3.org/1999/xlink" width="200" height="200"><path d="M0 0m113.777778 0l796.444444 0q113.777778 0 113.777778 113.777778l0 796.444444q0 113.777778-113.777778 113.777778l-796.444444 0q-113.777778 0-113.777778-113.777778l0-796.444444q0-113.777778 113.777778-113.777778Z" fill="#35D186" p-id="21702"></path><path d="M568.888889 273.066667h284.444444v56.888889h-284.444444zM455.111111 273.066667H341.333333v-113.777778H284.444444v113.777778H170.666667v56.888889h113.777777v113.777777h56.888889v-113.777777h113.777778v-56.888889zM435.768889 621.226667l-40.391111-40.391111-80.213334 80.782222-80.782222-80.782222-40.391111 40.391111 80.782222 80.782222-80.782222 80.213333 40.391111 40.391111 80.782222-80.782222 80.213334 80.782222 40.391111-40.391111-80.782222-80.213333 80.782222-80.782222zM568.888889 671.288889h284.444444v56.888889h-284.444444zM682.666667 557.511111h56.888889v56.888889h-56.888889zM682.666667 785.066667h56.888889v56.888889h-56.888889z" fill="#FFFFFF" p-id="21703"></path></svg>