<?xml version="1.0" standalone="no"?><!DOCTYPE svg PUBLIC "-//W3C//DTD SVG 1.1//EN" "http://www.w3.org/Graphics/SVG/1.1/DTD/svg11.dtd"><svg t="1724588378487" class="icon" viewBox="0 0 1024 1024" version="1.1" xmlns="http://www.w3.org/2000/svg" p-id="8673" xmlns:xlink="http://www.w3.org/1999/xlink" width="200" height="200"><path d="M819.236279 921.599671H972.799653a51.199982 51.199982 0 0 1 0 102.399963H529.078668a51.93141 51.93141 0 0 1-4.095998-0.146285c-4.315427 0.109714-8.630854 0.146286-12.982853 0.146285-282.770185 0-511.999817-229.229632-511.999817-511.999817S229.229632 0 511.999817 0s511.999817 229.229632 511.999817 511.999817c0 167.497083-80.420543 316.196459-204.763355 409.599854zM511.999817 375.478723a102.399963 102.399963 0 1 0 0-204.799927 102.399963 102.399963 0 0 0 0 204.799927zM648.520911 511.999817a102.399963 102.399963 0 1 0 204.799927 0 102.399963 102.399963 0 0 0-204.799927 0zM511.999817 648.520911a102.399963 102.399963 0 1 0 0 204.799927 102.399963 102.399963 0 0 0 0-204.799927zM375.478723 511.999817a102.399963 102.399963 0 1 0-204.799927 0 102.399963 102.399963 0 0 0 204.799927 0z" fill="#32B7FA" p-id="8674"></path></svg>