<?xml version="1.0" standalone="no"?><!DOCTYPE svg PUBLIC "-//W3C//DTD SVG 1.1//EN" "http://www.w3.org/Graphics/SVG/1.1/DTD/svg11.dtd"><svg t="1724590313333" class="icon" viewBox="0 0 1024 1024" version="1.1" xmlns="http://www.w3.org/2000/svg" p-id="33866" xmlns:xlink="http://www.w3.org/1999/xlink" width="200" height="200"><path d="M170.666667 0h682.666666a170.666667 170.666667 0 0 1 170.666667 170.666667v682.666666a170.666667 170.666667 0 0 1-170.666667 170.666667H170.666667a170.666667 170.666667 0 0 1-170.666667-170.666667V170.666667a170.666667 170.666667 0 0 1 170.666667-170.666667z m355.541333 295.765333V396.373333L682.666667 262.186667 526.208 128v100.693333C353.365333 228.693333 213.333333 348.714667 213.333333 497.066667c0 52.693333 18.005333 101.504 48.512 142.933333l57.088-48.981333a176.896 176.896 0 0 1-27.392-93.952c0-111.232 105.045333-201.301333 234.666667-201.301334zM762.154667 384l-57.088 48.981333c17.408 28.032 27.392 59.904 27.392 93.952 0 111.232-105.045333 201.301333-234.666667 201.301334V627.626667L341.333333 761.813333 497.792 896v-100.693333c172.842667 0 312.874667-120.064 312.874667-268.373334 0-52.693333-18.005333-101.504-48.512-142.933333z" fill="#efb336" p-id="33867"></path></svg>