<?xml version="1.0" standalone="no"?><!DOCTYPE svg PUBLIC "-//W3C//DTD SVG 1.1//EN" "http://www.w3.org/Graphics/SVG/1.1/DTD/svg11.dtd"><svg t="1724506523413" class="icon" viewBox="0 0 1024 1024" version="1.1" xmlns="http://www.w3.org/2000/svg" p-id="17417" width="200" height="200" xmlns:xlink="http://www.w3.org/1999/xlink"><path d="M512 512m-512 0a512 512 0 1 0 1024 0 512 512 0 1 0-1024 0Z" fill="#02B980" p-id="17418"></path><path d="M221.5 221.706v234.95l109.325-109.325a34.14 34.14 0 0 1 25.459-25.459L520.156 158h-233.51c-35.943-0.058-65.146 28.512-65.146 63.706z" fill="#FFFFFF" p-id="17419"></path><path d="M780.68 221.706c0-35.194-29.145-63.706-65.145-63.706H520.214L356.342 321.814c2.476-0.576 5.126-0.921 7.776-0.921h102.758c18.896 0 34.214 15.318 34.214 34.214s-15.318 34.215-34.214 34.215H364.118c-18.896 0-34.215-15.319-34.215-34.215 0-2.707 0.346-5.299 0.922-7.776L221.5 456.656v327.86L489.225 516.79H364.118c-18.896 0-34.215-15.318-34.215-34.214s15.319-34.214 34.215-34.214h193.536L780.68 225.334v-3.628z" fill="#EBFFF9" p-id="17420"></path><path d="M780.68 225.334l-222.969 222.97h35.655c18.896 0 34.214 15.318 34.214 34.214 0 18.897-15.318 34.215-34.214 34.215H489.282L221.5 784.515v61.402c0 8.928 10.022 14.342 17.74 9.62l87.61-53.8a42.808 42.808 0 0 1 41.53-1.785l110.304 55.238 301.997-301.996v-327.86z" fill="#DFFBF2" p-id="17421"></path><path d="M506.332 863.83l129.715-63.993c13.248-6.567 29.088-5.76 41.587 2.073l85.19 53.338c7.72 4.838 17.857-0.576 17.857-9.562v-292.55L478.684 855.133l17.165 8.582c3.283 1.728 7.2 1.728 10.483 0.115z" fill="#C1EDE0" p-id="17422"></path><path d="M607.305 755.312l-60.883 11.635a16.284 16.284 0 0 1-19.354-18.317l8.122-61.459c0.46-3.629 2.13-7.027 4.665-9.734l280.512-297.1c6.509-6.913 17.165-7.374 23.847-1.095l52.761 49.766c6.682 6.278 6.797 16.992 0.288 23.904l-280.512 297.1a17.32 17.32 0 0 1-9.446 5.3z" fill="#FFFFFF" p-id="17423"></path></svg>